<?xml version="1.0" encoding="UTF-8"?>
<svg viewBox="0 0 1440 325" version="1.1" xmlns="http://www.w3.org/2000/svg" xmlns:xlink="http://www.w3.org/1999/xlink">
    <!-- Generator: Sketch 53 (72520) - https://sketchapp.com -->
    <title>Desktop HD Copy</title>
    <desc>Created with Sketch.</desc>
    <g id="Desktop-HD-Copy" stroke="none" stroke-width="1" fill="none" fill-rule="evenodd">
        <g id="sketch-logo-light" transform="translate(24.000000, 4.000000)" fill-rule="nonzero">
            <path d="M473.125505,209.720108 L472.858234,206.12801 L469.273535,206.12801 L447.02427,206.12801 L443,206.12801 L443.164791,210.16845 C445.000767,255.18407 475.202324,285 528.913926,285 C580.141788,285 614.975319,258.255195 614.975319,217.772497 C614.975319,195.882533 607.417706,180.391757 593.01638,169.812598 C581.938405,161.674762 568.692761,157.087744 546.728406,152.302181 C545.260852,151.982432 543.73119,151.655146 541.898141,151.267548 C540.809656,151.037387 536.904171,150.215874 537.111437,150.259537 C497.22268,141.856406 484.569904,134.556647 484.569904,112.816857 C484.569904,90.3363124 502.864955,76.0202788 533.549189,76.0202788 C563.402582,76.0202788 582.269705,94.3418377 583.148319,123.182771 L583.262946,126.945501 L587.009229,126.945501 L608.949477,126.945501 L612.902367,126.945501 L612.81117,122.974456 C611.778738,78.0183818 581.760941,47.7629911 533.240172,47.7629911 C485.685649,47.7629911 454.286183,76.5168851 454.286183,113.748416 C454.286183,135.576491 461.835791,150.77742 476.25983,160.933652 C487.248149,168.670733 499.977509,172.772436 522.432643,177.32817 C523.484288,177.54153 524.581514,177.761779 525.887779,178.022169 C526.696353,178.183349 527.609563,178.364804 529.323389,178.705259 C550.569741,182.929412 559.944308,185.536634 568.496601,190.533924 C579.113422,196.737561 584.38258,205.59889 584.38258,219.325095 C584.38258,243.156745 564.442103,256.742712 529.531961,256.742712 C496.111464,256.742712 475.371069,239.900556 473.125505,209.720108 Z M677.551377,43.8814956 L677.551377,40 L673.688658,40 L651.74841,40 L647.88569,40 L647.88569,43.8814956 L647.88569,276.771229 L647.88569,280.652725 L651.74841,280.652725 L673.688658,280.652725 L677.551377,280.652725 L677.551377,276.771229 L677.551377,235.246897 L708.778408,204.686657 L764.544256,279.106052 L765.703249,280.652725 L767.629999,280.652725 L794.823545,280.652725 L802.60591,280.652725 L797.900087,274.424175 L729.795753,184.282426 L792.604126,121.467873 L799.23611,114.835234 L789.879264,114.835234 L760.522595,114.835234 L758.914574,114.835234 L757.781572,115.981848 L677.551377,197.175835 L677.551377,43.8814956 Z M954.740138,207.991128 L958.368975,207.991128 L958.595334,204.351753 C958.63515,203.711658 958.694191,202.653594 958.753195,201.378851 C958.7999,200.369802 958.838421,199.386534 958.865953,198.4569 C958.895791,197.449483 958.911875,196.533083 958.911875,195.725602 C958.911875,147.006191 926.798688,111.108999 879.339851,111.108999 C831.970179,111.108999 798.222738,149.320492 798.222738,197.58872 C798.222738,247.25757 830.440542,284.378961 879.648868,284.378961 C916.856725,284.378961 945.601558,262.194896 955.958256,228.54547 L957.505897,223.51711 L952.267997,223.51711 L929.400697,223.51711 L926.672649,223.51711 L925.760363,226.100596 C919.25675,244.518054 901.648752,256.742712 879.957886,256.742712 C851.600362,256.742712 831.832369,237.173649 828.271254,207.991128 L954.740138,207.991128 Z M829.170145,182.217997 C834.177422,156.088648 853.301519,138.745247 879.339851,138.745247 C906.177203,138.745247 924.698222,155.519522 928.749376,182.217997 L829.170145,182.217997 Z M1056.25241,141.229404 L1060.11513,141.229404 L1060.11513,137.347909 L1060.11513,118.71673 L1060.11513,114.835234 L1056.25241,114.835234 L1023.96007,114.835234 L1023.96007,73.6913815 L1023.96007,69.8098859 L1020.09735,69.8098859 L998.157106,69.8098859 L994.294387,69.8098859 L994.294387,73.6913815 L994.294387,114.835234 L968.182402,114.835234 L964.319683,114.835234 L964.319683,118.71673 L964.319683,137.347909 L964.319683,141.229404 L968.182402,141.229404 L994.294387,141.229404 L994.294387,234.230038 C994.294387,264.738565 1010.04185,281.273764 1038.94743,281.273764 C1043.99265,281.273764 1048.34192,280.970263 1051.99403,280.460561 C1054.25069,280.145612 1055.80906,279.819374 1056.66821,279.579561 L1059.49709,278.789939 L1059.49709,275.83967 L1059.49709,255.966413 L1059.49709,251.150455 L1054.81382,252.173507 C1054.62663,252.214399 1054.24742,252.291937 1053.70576,252.393993 C1052.78796,252.566918 1051.76564,252.740445 1050.66887,252.902519 C1047.86012,253.317579 1045.07428,253.583601 1042.50949,253.630291 C1042.24567,253.635093 1041.98531,253.637516 1041.72858,253.637516 C1029.06607,253.637516 1023.96007,247.660965 1023.96007,232.67744 L1023.96007,141.229404 L1056.25241,141.229404 Z M1148.49415,284.378961 C1189.556,284.378961 1218.5485,258.268817 1225.82948,221.321146 L1226.74295,216.685678 L1222.04034,216.685678 L1199.79107,216.685678 L1196.82101,216.685678 L1196.058,219.570013 C1189.82064,243.148415 1172.89107,256.742712 1148.49415,256.742712 C1118.04757,256.742712 1097.04273,232.608487 1097.04273,197.89924 C1097.04273,162.9215 1118.01108,138.745247 1148.49415,138.745247 C1172.89107,138.745247 1189.82064,152.339544 1196.058,175.917946 L1196.82101,178.802281 L1199.79107,178.802281 L1222.04034,178.802281 L1226.74295,178.802281 L1225.82948,174.166813 C1218.5485,137.219143 1189.556,111.108999 1148.49415,111.108999 C1100.7952,111.108999 1067.06802,149.590555 1067.06802,197.89924 C1067.06802,245.942222 1100.84164,284.378961 1148.49415,284.378961 Z M1281.37171,43.8814956 L1281.37171,40 L1277.50899,40 L1255.56874,40 L1251.70602,40 L1251.70602,43.8814956 L1251.70602,276.771229 L1251.70602,280.652725 L1255.56874,280.652725 L1277.50899,280.652725 L1281.37171,280.652725 L1281.37171,276.771229 L1281.37171,183.304816 C1281.37171,154.827401 1298.62136,138.124208 1324.78868,138.124208 C1349.78102,138.124208 1362.33431,152.662735 1362.33431,180.19962 L1362.33431,276.771229 L1362.33431,280.652725 L1366.19703,280.652725 L1388.13728,280.652725 L1392,280.652725 L1392,276.771229 L1392,175.852345 C1392,136.954738 1368.03088,111.108999 1328.49689,111.108999 C1308.15795,111.108999 1291.80937,118.596778 1281.37171,129.343643 L1281.37171,43.8814956 Z" id="Shape" fill="#000000"></path>
            <polygon id="Path" fill="#FDB300" points="76.8 10.4369419 176 0 275.2 10.4369419 352 113.037388 176 317 0 113.037388"></polygon>
            <g id="Group" transform="translate(0.000000, 113.000000)">
                <polygon id="Path" fill="#EA6C00" points="71.3464479 0 176.143323 204.538179 0 0"></polygon>
                <polygon id="Path" fill="#EA6C00" transform="translate(264.217477, 102.269089) scale(-1, 1) translate(-264.217477, -102.269089) " points="247.492264 0 352.289139 204.538179 176.145816 0"></polygon>
                <polygon id="Path" fill="#FDAD00" points="71.3464479 0 280.940198 0 176.143323 204.538179"></polygon>
            </g>
            <polygon id="Path" fill="#FDD231" points="177 0 77.5263158 10.4318463 72 113"></polygon>
            <polygon id="Path" fill="#FDD231" transform="translate(228.500000, 56.500000) scale(-1, 1) translate(-228.500000, -56.500000) " points="281 0 181.526316 10.4318463 176 113"></polygon>
            <polygon id="Path" fill="#FDAD00" transform="translate(313.500000, 61.500000) scale(-1, 1) translate(-313.500000, -61.500000) " points="275 113 352 10 346.474477 113"></polygon>
            <polygon id="Path" fill="#FDAD00" points="0 113 77 10 71.4744773 113"></polygon>
            <polygon id="Path" fill="#FEEEB7" points="176 0 71 113 281 113"></polygon>
        </g>
    </g>
</svg>